<svg id="Layer_2" data-name="Layer 2" xmlns="http://www.w3.org/2000/svg" xmlns:xlink="http://www.w3.org/1999/xlink" viewBox="0 0 1024 1024"><defs><style>.cls-1{fill:url(#radial-gradient);}.cls-2{fill:#409eff;}.cls-3{fill:#fff;}</style><radialGradient id="radial-gradient" cx="512" cy="512" r="512" gradientUnits="userSpaceOnUse"><stop offset="0" stop-color="#011119"/><stop offset="1"/></radialGradient></defs><rect class="cls-1" width="1024" height="1024" rx="192"/><path id="C2" class="cls-2" d="M481,441.34c1.79-10.64,16.23-22.87,43.76-41.55,22.09-15,41.82-19.17,68.32-15.22,35.06,5.23,61,27.35,74.18,38.64,12.21,10.43,36.79,31.88,49.53,65.52a128.71,128.71,0,0,1,7.86,54.08,98.59,98.59,0,0,1-5.6,29.94c-4.56,12.4-10.75,20.32-21.13,32.19-20.36,23.29-35.33,37.54-35.33,37.54-17,16.18-33,33.31-49.77,49.77-37.34,36.77-56,55.16-75.54,75.53-6.83,7.13-26.47,26.68-65.76,65.77a212.45,212.45,0,0,1-18.88,16.66c-7.13,5.6-13.4,10.52-21.09,14.46-3.64,1.87-19.15,9.42-42.36,9.18-27-.28-48.76-11.09-58.94-16.28-9.91-5.06-46.59-24.35-71.25-65.92-4.87-8.22-17.91-30.58-20.27-59.37-2.11-25.77,5.41-43.56,9.87-54.12a109.88,109.88,0,0,1,17.58-28.63c2.09-2.44,5.14-4.84,10.66-10.67,2.94-3.1,5.22-5.32,9.78-9.77,4.76-4.65,5.94-5.63,8.21-6,4.69-.77,9.42,1.8,12.19,3.3,4.22,2.3,6.82,5,9.74,8,7.82,7.91,14.43,14.37,16.59,16.59,4,4.11,8,8.18,12.17,12.17,5.8,5.6,8.05,7.49,9.06,10.84.56,1.83.89,4.59-1.79,10.64-2.76,6.22-6.12,10.1-9.34,13.77-8.26,9.38-12.43,13.87-16.67,18.88-6.3,7.43-7.61,8.07-8.67,10.88-3,8.06-.72,16.57.18,19.73,3.42,12,11.51,20.28,17.68,26.57,5.23,5.33,9.85,10,17.26,13.71a42.59,42.59,0,0,0,29.92,3.26c8.35-2.2,13.23-6.75,16.65-10,15.41-14.7,26.11-25.58,36.44-36.44,1.6-1.68,9.06-9.12,24-24,17.07-17,19.57-19.37,25.77-25.77,12.47-12.89,23.52-23.52,32.89-32.88,7.1-7.11,12.6-13.63,45.32-45.33,33.08-32.05,24.91-26.73,38.21-38.21,9-7.77,17.48-17.4,34.44-36.65a34.24,34.24,0,0,0,6.68-11.1,38.66,38.66,0,0,0,1.59-21.51,53.93,53.93,0,0,0-7.94-18.61c-2.48-3.78-10.81-16.11-26.11-22.55-2.55-1.08-13.91-5.61-25.93-2.83-4.85,1.12-7.65,2.93-13.1,6.46-2.16,1.39-16,10.37-22.43,20.22a13.83,13.83,0,0,1-13.1,6.45c-2.9-.32-5.91-1.66-11.51-6.18s-7.47-7.12-14.38-14.38c-6.3-6.61-10.55-11.07-16.59-16.59a72.44,72.44,0,0,1-7.75-7.74C482.26,448.87,480.85,442.49,481,441.34Z" transform="translate(0)"/><path id="C" class="cls-3" d="M498,437.66c1.8-10.64,16.23-22.87,43.76-41.55,22.1-15,41.82-19.17,68.32-15.22,35.06,5.23,61,27.35,74.19,38.64C696.47,430,721,451.41,733.78,485.05a128.71,128.71,0,0,1,7.86,54.08,98.59,98.59,0,0,1-5.6,29.94c-4.55,12.4-10.75,20.32-21.13,32.19-20.36,23.29-35.33,37.54-35.33,37.54-17,16.18-33.05,33.31-49.77,49.77-37.34,36.78-56,55.16-75.53,75.54-6.84,7.12-26.48,26.67-65.77,65.76a213.31,213.31,0,0,1-18.87,16.66c-7.14,5.6-13.41,10.52-21.1,14.46-3.64,1.87-19.15,9.42-42.36,9.18-27-.28-48.75-11.09-58.94-16.28-9.91-5.06-46.59-24.35-71.25-65.92-4.87-8.22-17.91-30.58-20.27-59.37-2.1-25.77,5.41-43.56,9.87-54.12a109.88,109.88,0,0,1,17.58-28.63c2.1-2.44,5.14-4.84,10.66-10.67,2.94-3.1,5.22-5.32,9.78-9.77,4.76-4.65,5.95-5.63,8.21-6,4.69-.78,9.43,1.79,12.19,3.3,4.22,2.29,6.82,5,9.74,8,7.82,7.91,14.43,14.37,16.59,16.59,4,4.11,8,8.18,12.17,12.17,5.8,5.6,8.05,7.49,9.06,10.84.56,1.83.89,4.59-1.79,10.64-2.76,6.22-6.12,10.1-9.34,13.77-8.25,9.38-12.42,13.87-16.67,18.88-6.3,7.43-7.61,8.07-8.67,10.88-3,8.06-.72,16.57.18,19.73,3.42,12,11.52,20.28,17.68,26.57,5.23,5.33,9.85,10,17.26,13.71a42.62,42.62,0,0,0,29.93,3.26c8.34-2.2,13.22-6.75,16.64-10,15.41-14.7,26.11-25.58,36.44-36.44,1.6-1.68,9.07-9.12,24-24,17.07-17,19.58-19.37,25.78-25.77,12.46-12.89,23.51-23.51,32.88-32.88,7.11-7.11,12.6-13.63,45.32-45.33,33.08-32,24.91-26.73,38.21-38.21,9-7.77,17.48-17.4,34.44-36.65a34.24,34.24,0,0,0,6.68-11.1,38.66,38.66,0,0,0,1.59-21.51,53.71,53.71,0,0,0-7.94-18.61c-2.48-3.78-10.81-16.11-26.11-22.55-2.55-1.08-13.91-5.61-25.93-2.83-4.85,1.12-7.65,2.93-13.1,6.46-2.16,1.39-16,10.37-22.43,20.22A13.8,13.8,0,0,1,553.52,495c-2.9-.32-5.92-1.66-11.52-6.18s-7.46-7.12-14.38-14.38c-6.3-6.61-10.55-11.07-16.59-16.59a72.44,72.44,0,0,1-7.75-7.74C499.22,445.19,497.8,438.81,498,437.66Z" transform="translate(0)"/><path id="C2-2" data-name="C2" class="cls-2" d="M525.29,585.9c-1.8,10.65-16.24,22.87-43.77,41.55-22.09,15-41.82,19.17-68.31,15.22-35.06-5.22-61-27.34-74.19-38.64-12.21-10.42-36.78-31.88-49.52-65.51a129,129,0,0,1-7.87-54.08,98.67,98.67,0,0,1,5.61-29.94c4.55-12.4,10.75-20.32,21.13-32.19,20.35-23.29,35.33-37.55,35.33-37.55,17-16.17,33.05-33.3,49.76-49.76,37.34-36.78,56-55.17,75.54-75.54,6.83-7.13,26.48-26.67,65.76-65.76A213.64,213.64,0,0,1,553.64,177c7.14-5.6,13.41-10.52,21.09-14.45,3.65-1.87,19.15-9.42,42.37-9.18,27,.28,48.75,11.09,58.93,16.28,9.92,5,46.59,24.34,71.25,65.91,4.88,8.23,17.92,30.59,20.27,59.38,2.11,25.77-5.41,43.56-9.87,54.11a110.17,110.17,0,0,1-17.57,28.64c-2.1,2.43-5.15,4.83-10.67,10.66-2.93,3.11-5.21,5.33-9.77,9.78-4.77,4.65-5.95,5.63-8.22,6-4.69.78-9.42-1.8-12.18-3.3-4.22-2.29-6.82-5-9.74-8-7.82-7.92-14.44-14.38-16.59-16.59-4-4.11-8-8.19-12.17-12.17-5.81-5.6-8-7.49-9.07-10.84-.55-1.84-.89-4.59,1.8-10.65,2.75-6.22,6.11-10.1,9.34-13.76,8.25-9.38,12.42-13.87,16.67-18.88,6.29-7.43,7.61-8.07,8.67-10.88,3-8.06.71-16.58-.18-19.74-3.43-12-11.52-20.28-17.68-26.56-5.23-5.33-9.85-10-17.27-13.71a42.54,42.54,0,0,0-29.92-3.26c-8.34,2.2-13.23,6.74-16.65,10-15.4,14.7-26.11,25.58-36.43,36.43-1.61,1.69-9.07,9.12-24,24-17.07,17-19.57,19.36-25.77,25.77C507.81,345,496.77,355.58,487.4,365c-7.11,7.11-12.6,13.63-45.32,45.32C409,442.32,417.16,437,403.86,448.49c-9,7.77-17.48,17.39-34.44,36.65a34.33,34.33,0,0,0-6.67,11.1,38.53,38.53,0,0,0-1.6,21.51,54.13,54.13,0,0,0,7.94,18.6c2.49,3.78,10.81,16.12,26.12,22.56,2.54,1.07,13.9,5.61,25.93,2.83,4.85-1.12,7.65-2.94,13.09-6.46,2.17-1.4,16-10.37,22.44-20.22a13.46,13.46,0,0,1,4.44-4.44,13.62,13.62,0,0,1,8.65-2c2.9.33,5.92,1.66,11.52,6.18s7.46,7.13,14.38,14.38c6.29,6.62,10.54,11.08,16.59,16.6A70.59,70.59,0,0,1,520,573.5C524.06,578.38,525.48,584.76,525.29,585.9Z" transform="translate(0)"/><path id="C-2" data-name="C" class="cls-3" d="M543,582.66c-1.79,10.64-16.23,22.87-43.76,41.55-22.09,15-41.82,19.17-68.32,15.22-35.06-5.23-61-27.35-74.18-38.64-12.21-10.43-36.79-31.88-49.53-65.52a128.71,128.71,0,0,1-7.86-54.08,98.59,98.59,0,0,1,5.6-29.94c4.56-12.4,10.75-20.32,21.13-32.19,20.36-23.29,35.33-37.54,35.33-37.54,17-16.18,33.05-33.31,49.77-49.77,37.34-36.77,56-55.16,75.54-75.53,6.83-7.13,26.47-26.68,65.76-65.77a212.45,212.45,0,0,1,18.88-16.66c7.13-5.6,13.4-10.52,21.09-14.46,3.64-1.87,19.15-9.42,42.36-9.18,27,.28,48.76,11.09,58.94,16.28,9.91,5.06,46.59,24.35,71.25,65.92,4.87,8.22,17.91,30.58,20.27,59.37,2.11,25.77-5.41,43.56-9.87,54.12a109.88,109.88,0,0,1-17.58,28.63c-2.09,2.44-5.14,4.84-10.66,10.67-2.94,3.1-5.22,5.32-9.78,9.77-4.76,4.65-5.94,5.63-8.21,6-4.69.77-9.42-1.8-12.19-3.3-4.22-2.3-6.82-5-9.74-8-7.82-7.91-14.43-14.37-16.59-16.59-4-4.11-8-8.18-12.17-12.17-5.8-5.6-8.05-7.49-9.06-10.84-.56-1.83-.89-4.59,1.79-10.64,2.76-6.22,6.12-10.1,9.34-13.77,8.26-9.38,12.43-13.87,16.67-18.88,6.3-7.43,7.61-8.07,8.67-10.88,3-8.06.72-16.57-.18-19.73-3.42-12-11.51-20.28-17.68-26.57-5.23-5.33-9.85-10-17.26-13.71a42.59,42.59,0,0,0-29.92-3.26c-8.35,2.2-13.23,6.75-16.65,10-15.41,14.7-26.11,25.58-36.44,36.44-1.6,1.68-9.06,9.12-24,24-17.07,17-19.57,19.37-25.77,25.77-12.47,12.89-23.52,23.52-32.89,32.88-7.1,7.11-12.6,13.63-45.32,45.33-33.08,32.05-24.91,26.73-38.21,38.21-9,7.77-17.48,17.4-34.44,36.65a34.24,34.24,0,0,0-6.68,11.1,38.66,38.66,0,0,0-1.59,21.51,53.93,53.93,0,0,0,7.94,18.61c2.48,3.78,10.81,16.11,26.11,22.55,2.55,1.08,13.91,5.61,25.93,2.83,4.85-1.12,7.65-2.93,13.1-6.46,2.16-1.39,16-10.37,22.43-20.22a13.83,13.83,0,0,1,13.1-6.45c2.9.32,5.91,1.66,11.51,6.18s7.47,7.12,14.38,14.38c6.3,6.61,10.55,11.07,16.59,16.59a72.44,72.44,0,0,1,7.75,7.74C541.74,575.13,543.15,581.51,543,582.66Z" transform="translate(0)"/></svg>